<svg xmlns="http://www.w3.org/2000/svg" width="512" height="512" fill="none"><path fill="#FFF" d="M0 482V30C0 13 13 0 30 0h452c17 0 30 13 30 30v452c0 17-13 30-30 30H30c-17 0-30-13-30-30z"/><path d="M84 183H56v147h38l-1-20v-20h35-6l1-1a148 148 0 0 1 8-2l6-3 1-1h-1l-2-1a87 87 0 0 0-2-1 67 67 0 0 1-13-11c-3-4-6-9-7-13l-1-2 2-1h1-14l-8 1v-36h19a28 28 0 0 1 2 0 43 43 0 0 1-1 0h-1v-2l4-10 9-10a51 51 0 0 1 11-8l-3-1a43 43 0 0 0-14-5H84z" fill="#030536"/><path d="m136 189-1 1a51 51 0 0 0-19 17l-4 10v2h1a29 29 0 0 0 2 1h2v1h1c4 2 7 7 8 12v7a18 18 0 0 1-11 14h-1l-1 1v2a41 41 0 0 0 15 20 69 69 0 0 0 7 5l1 1h2-1l5-2 11-11a59 59 0 0 0 11-27v-8a54 54 0 0 0-28-46z" fill="#3106A2"/><path d="M123 183a200 200 0 0 1-5 1l7 1a68 68 0 0 1 19 13 56 56 0 0 1 13 21 54 54 0 0 1 3 24c-1 7-4 16-8 23a49 49 0 0 1-21 19 45 45 0 0 1-12 4v1h-1 11a1261 1261 0 0 1 38 0l11-3a56 56 0 0 0 20-12 53 53 0 0 0 16-39 51 51 0 0 0-5-24l-6-10a53 53 0 0 0-34-19h-46z" fill="#964DE1"/><path d="M237 191a1274 1274 0 0 0-19 1l1 2 2 4a628 628 0 0 1 4 12 386 386 0 0 1 2 4 216 216 0 0 0 4 11 513 513 0 0 0 2 5 316 316 0 0 1 4 10 329 329 0 0 1 2 6 169 169 0 0 0 3 7 250 250 0 0 1 6 16 455 455 0 0 0 2 5l2 5a318 318 0 0 0 2 5 284 284 0 0 1 8 20l-2 1c-2 1-2 2-2 3l1 1 1 1h3l1-1 1 1 2 8 2 5 1 2v1l2 4h22l1-2 4-9a114 114 0 0 1 4-9l4 1 5 1h-2l-12-6-8-4c-2-1-6 0-10 1a77 77 0 0 0-12 4 106 106 0 0 0-7 3h-1l-2-2 1-2 9-4 13-5h10c4 1 9 4 13 7l6 4 9 1 8-1 14-6a24 24 0 0 1 3-2h2l5-2a860 860 0 0 1 5-2 277 277 0 0 0 8-3l7-3 5-2a138 138 0 0 0 14-5l2 2v1l-1 1a24 24 0 0 1-5 3l4-2c2-1 3-2 2-3l-1-2-5 1a50 50 0 0 1-10 4 47 47 0 0 1-3-8l-2-4a140 140 0 0 1-2-6l-3-6a366 366 0 0 1-2-6l-2-5-2-4-1-4a334 334 0 0 1-2-5 502 502 0 0 0-3-7 1502 1502 0 0 1-4-10l-2-5a122 122 0 0 0-4-8l-2-6a70 70 0 0 1-1-4l-1-2h-33l-1 2-5 13-2 6a128 128 0 0 1-2 4 468 468 0 0 0-5 14l-1 1a257 257 0 0 0-2 6 250 250 0 0 1-2 5l-3 7-2-5-1-3a1001 1001 0 0 0-3-7l-1-5a501 501 0 0 0-2-5l-1-3-2-4a532 532 0 0 1-6-15 155 155 0 0 1-1-4 205 205 0 0 0-5-14h-23zm86 69 1 2a82 82 0 0 0 3 7 262 262 0 0 0 2 4 1600 1600 0 0 1 11 28 63 63 0 0 1-17 7 22 22 0 0 1-18-4 70 70 0 0 1 4-9 469 469 0 0 1 1-5 813 813 0 0 0 13-30z" fill="#030536"/><path d="M389 284a45 45 0 0 0-4 1l-4 2a141 141 0 0 1-10 3l-7 3-4 1a283 283 0 0 1-4 2l-5 2a243 243 0 0 1-5 2h-2l-3 2-14 6-8 1-9-1-6-4-12-7h-11l-7 3a2133 2133 0 0 1-6 2l-9 4-1 2 2 2h1l4-1a97 97 0 0 1 7-3l8-3c4-1 8-2 10-1l8 4 12 6h2v1c0-1 0 0 0 0h9l10-3a119 119 0 0 1 16-5 232 232 0 0 1 4-2l6-2 1-1a647 647 0 0 0 21-8h2c-1 0 0 0 0 0 0-1 0-1 0 0v-1h3v-1c0 1 0 1 0 0h3v-1h1c3-2 4-2 4-4l-1-1h-2z" fill="#FADF15"/><path d="M379 292a4387 4387 0 0 1-21 8 569 569 0 0 1-7 3 249 249 0 0 0-11 4l-9 3a54 54 0 0 1-8 3l8-3a97 97 0 0 1 12-3v-1 1a174 174 0 0 0 5 15l2 5 2 3h41l-1-2a107 107 0 0 1-2-6 893 893 0 0 0-4-9l-2-4a414 414 0 0 0-1-4 517 517 0 0 1-3-6 621 621 0 0 0-2-5v-1l1-1h1-1zM433 191l-19 1-2 3a1047 1047 0 0 1-2 7 32 32 0 0 1-1 1 206 206 0 0 0-2 7 122 122 0 0 1-5 13 207 207 0 0 1-2 5 149 149 0 0 0-5 15l-1 2-1 2v1l3 7a192 192 0 0 1 6 14 250 250 0 0 0 2 7l2 4a1234 1234 0 0 0 8 17 114 114 0 0 1 5-11l2-5a293 293 0 0 0 2-5l1-3a422 422 0 0 0 3-6l1-4 1-2a224 224 0 0 0 2-6 236 236 0 0 1 8-21 257 257 0 0 1 8-21 109 109 0 0 1 5-12 154 154 0 0 1 4-10h-23z" fill="#030536"/></svg>